# xmcd
#
# Track frame offsets:
#	150
#	11016
#	33384
#	47871
#	65699
#	78692
#	89398
#	106136
#	119446
#	140052
#	153240
#	168019
#
# Disc length: 2570 seconds
#
# Revision: 1
# Processed by: cddbd v1.5PL3 Copyright (c) Steve Scherf et al.
# Submitted via: EasyCDDAExtractor 6.2.0.3
#
DISCID=9c0a080c
DTITLE=Dallas Wayne - I'm Your Biggest Fan
DYEAR=1900
DGENRE=
TTITLE0=3:30 In The Morning
TTITLE1=I'm Your Biggest Fan
TTITLE2=Junior Samples
TTITLE3=Under The Overpass
TTITLE4=Tex-tosterone
TTITLE5=It's All Over, All Over Town
TTITLE6=She's Good To Go
TTITLE7=You Can Count On Me
TTITLE8=Tell It To The Jukebox
TTITLE9=Crank The Hank
TTITLE10=Still Know How To Cry
TTITLE11=Downhill Slide
EXTD=
EXTT0=
EXTT1=
EXTT2=
EXTT3=
EXTT4=
EXTT5=
EXTT6=
EXTT7=
EXTT8=
EXTT9=
EXTT10=
EXTT11=
PLAYORDER=
